NotoSerifKannada-Regular.ufo
<glyph name="exclam" format="2">
  <advance width="326"/>
  <unicode hex="0021"/>
  <outline>
    <contour>
      <point x="141" y="198" type="line"/>
      <point x="184" y="198" type="line"/>
      <point x="216" y="714" type="line"/>
      <point x="109" y="714" type="line"/>
    </contour>
    <contour>
      <point x="162" y="-7" type="curve" smooth="yes"/>
      <point x="195" y="-7"/>
      <point x="222" y="9"/>
      <point x="222" y="59" type="curve" smooth="yes"/>
      <point x="222" y="108"/>
      <point x="195" y="124"/>
      <point x="162" y="124" type="curve" smooth="yes"/>
      <point x="129" y="124"/>
      <point x="103" y="108"/>
      <point x="103" y="59" type="curve" smooth="yes"/>
      <point x="103" y="9"/>
      <point x="129" y="-7"/>
    </contour>
  </outline>
</glyph>
<glyph name="parenleft" format="2">
  <advance width="339"/>
  <unicode hex="0028"/>
  <outline>
    <contour>
      <point x="307" y="-126" type="curve"/>
      <point x="307" y="-83" type="line"/>
      <point x="168" y="-1"/>
      <point x="153" y="158"/>
      <point x="153" y="317" type="curve" smooth="yes"/>
      <point x="153" y="476"/>
      <point x="168" y="635"/>
      <point x="307" y="715" type="curve"/>
      <point x="307" y="758" type="line"/>
      <point x="127" y="688"/>
      <point x="57" y="560"/>
      <point x="57" y="317" type="curve" smooth="yes"/>
      <point x="57" y="73"/>
      <point x="127" y="-56"/>
    </contour>
  </outline>
</glyph>
<glyph name="parenright" format="2">
  <advance width="339"/>
  <unicode hex="0029"/>
  <outline>
    <contour>
      <point x="34" y="-126" type="line"/>
      <point x="213" y="-56"/>
      <point x="284" y="73"/>
      <point x="284" y="317" type="curve" smooth="yes"/>
      <point x="284" y="560"/>
      <point x="213" y="688"/>
      <point x="34" y="758" type="curve"/>
      <point x="34" y="715" type="line"/>
      <point x="172" y="635"/>
      <point x="188" y="476"/>
      <point x="188" y="317" type="curve" smooth="yes"/>
      <point x="188" y="158"/>
      <point x="172" y="-1"/>
      <point x="34" y="-83" type="curve"/>
    </contour>
  </outline>
</glyph>
<glyph name="comma" format="2">
  <advance width="208"/>
  <unicode hex="002C"/>
  <outline>
    <contour>
      <point x="-19" y="-154" type="line"/>
      <point x="97" y="-120"/>
      <point x="140" y="-45"/>
      <point x="140" y="38" type="curve" smooth="yes"/>
      <point x="140" y="94"/>
      <point x="106" y="124"/>
      <point x="66" y="124" type="curve" smooth="yes"/>
      <point x="31" y="124"/>
      <point x="5" y="103"/>
      <point x="5" y="67" type="curve" smooth="yes"/>
      <point x="5" y="10"/>
      <point x="75" y="17"/>
      <point x="75" y="-23" type="curve" smooth="yes"/>
      <point x="75" y="-61"/>
      <point x="46" y="-93"/>
      <point x="-19" y="-114" type="curve"/>
    </contour>
  </outline>
</glyph>
<glyph name="period" format="2">
  <advance width="192"/>
  <unicode hex="002E"/>
  <outline>
    <contour>
      <point x="64" y="-7" type="curve" smooth="yes"/>
      <point x="97" y="-7"/>
      <point x="124" y="9"/>
      <point x="124" y="59" type="curve" smooth="yes"/>
      <point x="124" y="108"/>
      <point x="97" y="124"/>
      <point x="64" y="124" type="curve" smooth="yes"/>
      <point x="31" y="124"/>
      <point x="5" y="108"/>
      <point x="5" y="59" type="curve" smooth="yes"/>
      <point x="5" y="9"/>
      <point x="31" y="-7"/>
    </contour>
  </outline>
</glyph>
<glyph name="semicolon" format="2">
  <advance width="286"/>
  <unicode hex="003B"/>
  <outline>
    <contour>
      <point x="47" y="-154" type="line"/>
      <point x="163" y="-120"/>
      <point x="206" y="-45"/>
      <point x="206" y="38" type="curve" smooth="yes"/>
      <point x="206" y="94"/>
      <point x="171" y="124"/>
      <point x="132" y="124" type="curve" smooth="yes"/>
      <point x="97" y="124"/>
      <point x="70" y="103"/>
      <point x="70" y="67" type="curve" smooth="yes"/>
      <point x="70" y="10"/>
      <point x="141" y="17"/>
      <point x="141" y="-23" type="curve"/>
      <point x="141" y="-61"/>
      <point x="112" y="-93"/>
      <point x="47" y="-114" type="curve"/>
    </contour>
    <contour>
      <point x="141" y="408" type="curve" smooth="yes"/>
      <point x="173" y="408"/>
      <point x="200" y="424"/>
      <point x="200" y="473" type="curve" smooth="yes"/>
      <point x="200" y="523"/>
      <point x="173" y="538"/>
      <point x="141" y="538" type="curve" smooth="yes"/>
      <point x="107" y="538"/>
      <point x="81" y="523"/>
      <point x="81" y="473" type="curve" smooth="yes"/>
      <point x="81" y="424"/>
      <point x="107" y="408"/>
    </contour>
  </outline>
</glyph>
<glyph name="bracketright" format="2">
  <advance width="353"/>
  <unicode hex="005D"/>
  <outline>
    <contour>
      <point x="37" y="-128" type="line"/>
      <point x="253" y="-128" type="line"/>
      <point x="253" y="760" type="line"/>
      <point x="37" y="760" type="line"/>
      <point x="37" y="720" type="line"/>
      <point x="83" y="720" type="line" smooth="yes"/>
      <point x="128" y="720"/>
      <point x="162" y="711"/>
      <point x="162" y="646" type="curve" smooth="yes"/>
      <point x="162" y="-15" type="line" smooth="yes"/>
      <point x="162" y="-79"/>
      <point x="128" y="-88"/>
      <point x="83" y="-88" type="curve" smooth="yes"/>
      <point x="37" y="-88" type="line"/>
    </contour>
  </outline>
</glyph>
<glyph name="braceleft" format="2">
  <advance width="431"/>
  <unicode hex="007B"/>
  <outline>
    <contour>
      <point x="316" y="-128" type="curve" smooth="yes"/>
      <point x="378" y="-128" type="line"/>
      <point x="378" y="-87" type="line"/>
      <point x="349" y="-87" type="line" smooth="yes"/>
      <point x="290" y="-87"/>
      <point x="267" y="-50"/>
      <point x="267" y="19" type="curve" smooth="yes"/>
      <point x="267" y="192" type="line" smooth="yes"/>
      <point x="267" y="259"/>
      <point x="231" y="305"/>
      <point x="157" y="317" type="curve"/>
      <point x="157" y="318" type="line"/>
      <point x="230" y="330"/>
      <point x="267" y="375"/>
      <point x="267" y="441" type="curve" smooth="yes"/>
      <point x="267" y="613" type="line" smooth="yes"/>
      <point x="267" y="683"/>
      <point x="290" y="719"/>
      <point x="349" y="719" type="curve" smooth="yes"/>
      <point x="378" y="719" type="line"/>
      <point x="378" y="760" type="line"/>
      <point x="316" y="760" type="line" smooth="yes"/>
      <point x="225" y="760"/>
      <point x="176" y="708"/>
      <point x="176" y="618" type="curve" smooth="yes"/>
      <point x="176" y="443" type="line" smooth="yes"/>
      <point x="176" y="361"/>
      <point x="124" y="338"/>
      <point x="57" y="336" type="curve"/>
      <point x="57" y="297" type="line"/>
      <point x="124" y="294"/>
      <point x="176" y="272"/>
      <point x="176" y="189" type="curve" smooth="yes"/>
      <point x="176" y="15" type="line" smooth="yes"/>
      <point x="176" y="-72"/>
      <point x="225" y="-128"/>
    </contour>
  </outline>
</glyph>
<glyph name="braceright" format="2">
  <advance width="426"/>
  <unicode hex="007D"/>
  <outline>
    <contour>
      <point x="52" y="-128" type="line"/>
      <point x="115" y="-128" type="line"/>
      <point x="207" y="-128"/>
      <point x="255" y="-72"/>
      <point x="255" y="15" type="curve" smooth="yes"/>
      <point x="255" y="189" type="line" smooth="yes"/>
      <point x="255" y="272"/>
      <point x="308" y="294"/>
      <point x="374" y="297" type="curve"/>
      <point x="374" y="336" type="line"/>
      <point x="308" y="338"/>
      <point x="255" y="361"/>
      <point x="255" y="443" type="curve" smooth="yes"/>
      <point x="255" y="618" type="line" smooth="yes"/>
      <point x="255" y="708"/>
      <point x="207" y="760"/>
      <point x="115" y="760" type="curve" smooth="yes"/>
      <point x="52" y="760" type="line"/>
      <point x="52" y="719" type="line"/>
      <point x="82" y="719" type="line" smooth="yes"/>
      <point x="142" y="719"/>
      <point x="165" y="683"/>
      <point x="165" y="613" type="curve" smooth="yes"/>
      <point x="165" y="441" type="line" smooth="yes"/>
      <point x="165" y="375"/>
      <point x="202" y="330"/>
      <point x="274" y="318" type="curve"/>
      <point x="274" y="317" type="line"/>
      <point x="199" y="305"/>
      <point x="165" y="259"/>
      <point x="165" y="192" type="curve" smooth="yes"/>
      <point x="165" y="19" type="line" smooth="yes"/>
      <point x="165" y="-50"/>
      <point x="142" y="-87"/>
      <point x="83" y="-87" type="curve" smooth="yes"/>
      <point x="52" y="-87" type="line"/>
    </contour>
  </outline>
</glyph>
<glyph name="udatta_deva" format="2">
  <unicode hex="0951"/>
  <anchor x="57" y="547" name="_top"/>
  <outline>
    <contour>
      <point x="24" y="669" type="line"/>
      <point x="88" y="669" type="line"/>
      <point x="88" y="870" type="line"/>
      <point x="24" y="870" type="line"/>
    </contour>
  </outline>
</glyph>
<glyph name="anudatta_deva" format="2">
  <unicode hex="0952"/>
  <anchor x="237" y="0" name="_bottom"/>
  <outline>
    <contour>
      <point x="24" y="-144" type="line"/>
      <point x="449" y="-144" type="line"/>
      <point x="449" y="-74" type="line"/>
      <point x="24" y="-74" type="line"/>
    </contour>
  </outline>
</glyph>
<glyph name="spacingCandrabindu_kannada" format="2">
  <advance width="492"/>
  <unicode hex="0C80"/>
  <outline>
    <contour>
      <point x="421" y="392"/>
      <point x="442" y="501" type="curve"/>
      <point x="398" y="513" type="line"/>
      <point x="379" y="448"/>
      <point x="333" y="397"/>
      <point x="246" y="397" type="curve" smooth="yes"/>
      <point x="159" y="397"/>
      <point x="113" y="448"/>
      <point x="93" y="513" type="curve"/>
      <point x="50" y="501" type="line"/>
      <point x="71" y="392"/>
      <point x="131" y="323"/>
      <point x="246" y="323" type="curve" smooth="yes"/>
      <point x="360" y="323"/>
    </contour>
    <contour>
      <point x="292" y="482"/>
      <point x="292" y="511" type="curve" smooth="yes"/>
      <point x="292" y="540"/>
      <point x="271" y="558"/>
      <point x="246" y="558" type="curve" smooth="yes"/>
      <point x="220" y="558"/>
      <point x="198" y="540"/>
      <point x="198" y="511" type="curve" smooth="yes"/>
      <point x="198" y="482"/>
      <point x="220" y="466"/>
      <point x="246" y="466" type="curve" smooth="yes"/>
      <point x="270" y="466"/>
    </contour>
  </outline>
</glyph>
<glyph name="candrabindu_kannada" format="2">
  <unicode hex="0C81"/>
  <anchor x="0" y="437" name="_top"/>
  <outline>
    <contour>
      <point x="158" y="647"/>
      <point x="188" y="748" type="curve"/>
      <point x="152" y="764" type="line"/>
      <point x="123" y="705"/>
      <point x="84" y="650"/>
      <point x="0" y="650" type="curve" smooth="yes"/>
      <point x="-84" y="650"/>
      <point x="-123" y="705"/>
      <point x="-152" y="764" type="curve"/>
      <point x="-187" y="748" type="line"/>
      <point x="-158" y="647"/>
      <point x="-106" y="576"/>
      <point x="0" y="576" type="curve" smooth="yes"/>
      <point x="106" y="576"/>
    </contour>
    <contour>
      <point x="46" y="733"/>
      <point x="46" y="763" type="curve" smooth="yes"/>
      <point x="46" y="791"/>
      <point x="25" y="809"/>
      <point x="0" y="809" type="curve" smooth="yes"/>
      <point x="-26" y="809"/>
      <point x="-48" y="791"/>
      <point x="-48" y="763" type="curve" smooth="yes"/>
      <point x="-48" y="734"/>
      <point x="-26" y="717"/>
      <point x="0" y="717" type="curve" smooth="yes"/>
      <point x="24" y="717"/>
    </contour>
  </outline>
</glyph>
<glyph name="nukta_kannada" format="2">
  <unicode hex="0CBC"/>
  <anchor x="0" y="0" name="_bottom"/>
  <outline>
    <contour>
      <point x="124" y="-167" type="curve" smooth="yes"/>
      <point x="148" y="-167"/>
      <point x="169" y="-150"/>
      <point x="169" y="-121" type="curve" smooth="yes"/>
      <point x="169" y="-93"/>
      <point x="149" y="-75"/>
      <point x="124" y="-75" type="curve" smooth="yes"/>
      <point x="98" y="-75"/>
      <point x="77" y="-92"/>
      <point x="77" y="-121" type="curve" smooth="yes"/>
      <point x="77" y="-149"/>
      <point x="98" y="-167"/>
    </contour>
    <contour>
      <point x="-122" y="-167" type="curve" smooth="yes"/>
      <point x="-98" y="-167"/>
      <point x="-77" y="-150"/>
      <point x="-77" y="-121" type="curve" smooth="yes"/>
      <point x="-77" y="-93"/>
      <point x="-97" y="-75"/>
      <point x="-122" y="-75" type="curve" smooth="yes"/>
      <point x="-148" y="-75"/>
      <point x="-169" y="-92"/>
      <point x="-169" y="-121" type="curve" smooth="yes"/>
      <point x="-169" y="-149"/>
      <point x="-148" y="-167"/>
    </contour>
  </outline>
</glyph>
<glyph name="iMatra_kannada" format="2">
  <unicode hex="0CBF"/>
  <anchor x="0" y="438" name="_top"/>
  <outline>
    <contour>
      <point x="22" y="450" type="curve" smooth="yes"/>
      <point x="79" y="450"/>
      <point x="141" y="528"/>
      <point x="141" y="625" type="curve" smooth="yes"/>
      <point x="141" y="720"/>
      <point x="91" y="809"/>
      <point x="-12" y="809" type="curve" smooth="yes"/>
      <point x="-96" y="809"/>
      <point x="-141" y="751"/>
      <point x="-141" y="686" type="curve" smooth="yes"/>
      <point x="-141" y="617"/>
      <point x="-97" y="569"/>
      <point x="-31" y="569" type="curve" smooth="yes"/>
      <point x="39" y="569"/>
      <point x="72" y="611"/>
      <point x="72" y="680" type="curve" smooth="yes"/>
      <point x="72" y="698"/>
      <point x="67" y="723"/>
      <point x="58" y="738" type="curve"/>
      <point x="21" y="747" type="line"/>
      <point x="75" y="726"/>
      <point x="96" y="688"/>
      <point x="96" y="639" type="curve" smooth="yes"/>
      <point x="96" y="568"/>
      <point x="42" y="527"/>
      <point x="-30" y="498" type="curve"/>
      <point x="-30" y="466"/>
      <point x="-11" y="450"/>
    </contour>
    <contour>
      <point x="-34" y="638" type="curve" smooth="yes"/>
      <point x="-80" y="638"/>
      <point x="-97" y="661"/>
      <point x="-97" y="691" type="curve" smooth="yes"/>
      <point x="-97" y="715"/>
      <point x="-81" y="741"/>
      <point x="-34" y="741" type="curve" smooth="yes"/>
      <point x="9" y="741"/>
      <point x="30" y="717"/>
      <point x="30" y="689" type="curve" smooth="yes"/>
      <point x="30" y="658"/>
      <point x="8" y="638"/>
    </contour>
  </outline>
</glyph>
<glyph name="llVocalic_kannada" format="2">
  <advance width="1248"/>
  <unicode hex="0CE1"/>
  <outline>
    <contour>
      <point x="791" y="125"/>
      <point x="791" y="327" type="curve" smooth="yes"/>
      <point x="791" y="388"/>
      <point x="773" y="447"/>
      <point x="739" y="491" type="curve"/>
      <point x="742" y="460" type="line"/>
      <point x="884" y="460" type="line" smooth="yes"/>
      <point x="995" y="460"/>
      <point x="1036" y="446"/>
      <point x="1074" y="417" type="curve" smooth="yes"/>
      <point x="1125" y="379"/>
      <point x="1150" y="319"/>
      <point x="1150" y="244" type="curve" smooth="yes"/>
      <point x="1150" y="131"/>
      <point x="1097" y="63"/>
      <point x="1006" y="63" type="curve" smooth="yes"/>
      <point x="937" y="63"/>
      <point x="899" y="96"/>
      <point x="899" y="148" type="curve" smooth="yes"/>
      <point x="899" y="183"/>
      <point x="917" y="213"/>
      <point x="944" y="225" type="curve"/>
      <point x="930" y="237" type="line"/>
      <point x="930" y="228"/>
      <point x="930" y="220"/>
      <point x="930" y="210" type="curve" smooth="yes"/>
      <point x="930" y="174"/>
      <point x="952" y="158"/>
      <point x="982" y="158" type="curve" smooth="yes"/>
      <point x="1021" y="158"/>
      <point x="1039" y="183"/>
      <point x="1039" y="214" type="curve" smooth="yes"/>
      <point x="1039" y="252"/>
      <point x="1016" y="280"/>
      <point x="971" y="280" type="curve" smooth="yes"/>
      <point x="910" y="280"/>
      <point x="855" y="228"/>
      <point x="855" y="144" type="curve" smooth="yes"/>
      <point x="855" y="51"/>
      <point x="915" y="-12"/>
      <point x="1014" y="-12" type="curve" smooth="yes"/>
      <point x="1137" y="-12"/>
      <point x="1196" y="103"/>
      <point x="1196" y="245" type="curve" smooth="yes"/>
      <point x="1196" y="336"/>
      <point x="1174" y="408"/>
      <point x="1131" y="459" type="curve" smooth="yes"/>
      <point x="1081" y="518"/>
      <point x="1025" y="547"/>
      <point x="892" y="547" type="curve" smooth="yes"/>
      <point x="671" y="547" type="line"/>
      <point x="657" y="517" type="line"/>
      <point x="718" y="468"/>
      <point x="744" y="406"/>
      <point x="744" y="333" type="curve" smooth="yes"/>
      <point x="744" y="183"/>
      <point x="630" y="83"/>
      <point x="451" y="83" type="curve" smooth="yes"/>
      <point x="374" y="83"/>
      <point x="341" y="109"/>
      <point x="341" y="148" type="curve" smooth="yes"/>
      <point x="341" y="192"/>
      <point x="374" y="214"/>
      <point x="457" y="241" type="curve" smooth="yes"/>
      <point x="561" y="275"/>
      <point x="605" y="317"/>
      <point x="605" y="411" type="curve" smooth="yes"/>
      <point x="605" y="491"/>
      <point x="556" y="558"/>
      <point x="460" y="558" type="curve" smooth="yes"/>
      <point x="378" y="558"/>
      <point x="323" y="513"/>
      <point x="317" y="431" type="curve"/>
      <point x="333" y="431" type="line"/>
      <point x="320" y="504"/>
      <point x="272" y="558"/>
      <point x="187" y="558" type="curve" smooth="yes"/>
      <point x="101" y="558"/>
      <point x="40" y="500"/>
      <point x="40" y="420" type="curve" smooth="yes"/>
      <point x="40" y="364"/>
      <point x="61" y="322"/>
      <point x="98" y="286" type="curve"/>
      <point x="126" y="309" type="line"/>
      <point x="102" y="334"/>
      <point x="91" y="356"/>
      <point x="91" y="387" type="curve" smooth="yes"/>
      <point x="91" y="433"/>
      <point x="127" y="468"/>
      <point x="193" y="468" type="curve" smooth="yes"/>
      <point x="262" y="468"/>
      <point x="298" y="428"/>
      <point x="298" y="364" type="curve"/>
      <point x="348" y="364" type="line"/>
      <point x="348" y="429"/>
      <point x="384" y="468"/>
      <point x="459" y="468" type="curve" smooth="yes"/>
      <point x="522" y="468"/>
      <point x="554" y="435"/>
      <point x="554" y="390" type="curve" smooth="yes"/>
      <point x="554" y="340"/>
      <point x="522" y="311"/>
      <point x="433" y="282" type="curve" smooth="yes"/>
      <point x="324" y="246"/>
      <point x="274" y="202"/>
      <point x="274" y="127" type="curve" smooth="yes"/>
      <point x="274" y="44"/>
      <point x="349" y="-12"/>
      <point x="468" y="-12" type="curve" smooth="yes"/>
      <point x="665" y="-12"/>
    </contour>
  </outline>
</glyph>
<glyph name="llVocalicMatra_kannada" format="2">
  <unicode hex="0CE3"/>
  <outline>
    <contour>
      <point x="43" y="-542" type="curve" smooth="yes"/>
      <point x="212" y="-542"/>
      <point x="332" y="-436"/>
      <point x="332" y="-263" type="curve" smooth="yes"/>
      <point x="332" y="-200"/>
      <point x="310" y="-146"/>
      <point x="276" y="-111" type="curve"/>
      <point x="276" y="-143" type="line"/>
      <point x="439" y="-143" type="line" smooth="yes"/>
      <point x="583" y="-143"/>
      <point x="649" y="-205"/>
      <point x="649" y="-324" type="curve" smooth="yes"/>
      <point x="649" y="-416"/>
      <point x="604" y="-473"/>
      <point x="529" y="-473" type="curve" smooth="yes"/>
      <point x="463" y="-473"/>
      <point x="428" y="-440"/>
      <point x="428" y="-388" type="curve" smooth="yes"/>
      <point x="428" y="-353"/>
      <point x="443" y="-330"/>
      <point x="469" y="-321" type="curve"/>
      <point x="473" y="-302" type="line"/>
      <point x="460" y="-310"/>
      <point x="456" y="-322"/>
      <point x="456" y="-333" type="curve" smooth="yes"/>
      <point x="456" y="-360"/>
      <point x="473" y="-381"/>
      <point x="505" y="-381" type="curve" smooth="yes"/>
      <point x="539" y="-381"/>
      <point x="555" y="-358"/>
      <point x="555" y="-330" type="curve" smooth="yes"/>
      <point x="555" y="-292"/>
      <point x="534" y="-271"/>
      <point x="494" y="-271" type="curve" smooth="yes"/>
      <point x="438" y="-271"/>
      <point x="387" y="-319"/>
      <point x="387" y="-400" type="curve" smooth="yes"/>
      <point x="387" y="-487"/>
      <point x="445" y="-542"/>
      <point x="530" y="-542" type="curve" smooth="yes"/>
      <point x="635" y="-542"/>
      <point x="691" y="-456"/>
      <point x="691" y="-323" type="curve" smooth="yes"/>
      <point x="691" y="-174"/>
      <point x="610" y="-68"/>
      <point x="429" y="-68" type="curve" smooth="yes"/>
      <point x="206" y="-68" type="line"/>
      <point x="195" y="-94" type="line"/>
      <point x="246" y="-125"/>
      <point x="289" y="-171"/>
      <point x="289" y="-254" type="curve" smooth="yes"/>
      <point x="289" y="-395"/>
      <point x="179" y="-468"/>
      <point x="39" y="-468" type="curve" smooth="yes"/>
      <point x="-42" y="-468"/>
      <point x="-76" y="-451"/>
      <point x="-76" y="-417" type="curve" smooth="yes"/>
      <point x="-76" y="-384"/>
      <point x="-51" y="-366"/>
      <point x="27" y="-336" type="curve" smooth="yes"/>
      <point x="123" y="-299"/>
      <point x="157" y="-262"/>
      <point x="157" y="-188" type="curve" smooth="yes"/>
      <point x="157" y="-125"/>
      <point x="120" y="-68"/>
      <point x="46" y="-68" type="curve" smooth="yes"/>
      <point x="-19" y="-68"/>
      <point x="-65" y="-115"/>
      <point x="-80" y="-185" type="curve"/>
      <point x="-70" y="-185" type="line"/>
      <point x="-82" y="-115"/>
      <point x="-127" y="-68"/>
      <point x="-192" y="-68" type="curve" smooth="yes"/>
      <point x="-260" y="-68"/>
      <point x="-305" y="-115"/>
      <point x="-305" y="-180" type="curve" smooth="yes"/>
      <point x="-305" y="-231"/>
      <point x="-281" y="-268"/>
      <point x="-250" y="-295" type="curve"/>
      <point x="-226" y="-270" type="line"/>
      <point x="-243" y="-251"/>
      <point x="-256" y="-232"/>
      <point x="-256" y="-206" type="curve" smooth="yes"/>
      <point x="-256" y="-169"/>
      <point x="-230" y="-143"/>
      <point x="-186" y="-143" type="curve" smooth="yes"/>
      <point x="-129" y="-143"/>
      <point x="-101" y="-186"/>
      <point x="-94" y="-239" type="curve"/>
      <point x="-57" y="-239" type="line"/>
      <point x="-50" y="-181"/>
      <point x="-15" y="-143"/>
      <point x="37" y="-143" type="curve" smooth="yes"/>
      <point x="78" y="-143"/>
      <point x="104" y="-167"/>
      <point x="104" y="-205" type="curve" smooth="yes"/>
      <point x="104" y="-251"/>
      <point x="69" y="-272"/>
      <point x="-7" y="-300" type="curve" smooth="yes"/>
      <point x="-95" y="-332"/>
      <point x="-128" y="-370"/>
      <point x="-128" y="-427" type="curve" smooth="yes"/>
      <point x="-128" y="-492"/>
      <point x="-76" y="-542"/>
    </contour>
  </outline>
</glyph>
<glyph name="jihvamuliya_kannada" format="2">
  <advance width="538"/>
  <unicode hex="0CF1"/>
  <outline>
    <contour>
      <point x="50" y="0" type="line"/>
      <point x="488" y="0" type="line"/>
      <point x="488" y="28" type="line"/>
      <point x="146" y="509" type="line"/>
      <point x="164" y="508"/>
      <point x="185" y="507"/>
      <point x="215" y="507" type="curve" smooth="yes"/>
      <point x="343" y="507" type="line" smooth="yes"/>
      <point x="374" y="507"/>
      <point x="394" y="508"/>
      <point x="413" y="509" type="curve"/>
      <point x="50" y="28" type="line"/>
    </contour>
    <contour>
      <point x="112" y="42" type="curve"/>
      <point x="475" y="519" type="line"/>
      <point x="475" y="547" type="line"/>
      <point x="63" y="547" type="line"/>
      <point x="63" y="519" type="line"/>
      <point x="405" y="42" type="line"/>
      <point x="381" y="44"/>
      <point x="355" y="45"/>
      <point x="322" y="45" type="curve" smooth="yes"/>
      <point x="196" y="45" type="line" smooth="yes"/>
      <point x="163" y="45"/>
      <point x="136" y="44"/>
    </contour>
  </outline>
</glyph>
<glyph name="upadhmaniya_kannada" format="2">
  <advance width="671"/>
  <unicode hex="0CF2"/>
  <outline>
    <contour>
      <point x="510" y="104" type="curve" smooth="yes"/>
      <point x="587" y="104"/>
      <point x="651" y="164"/>
      <point x="651" y="264" type="curve" smooth="yes"/>
      <point x="651" y="363"/>
      <point x="588" y="423"/>
      <point x="510" y="423" type="curve" smooth="yes"/>
      <point x="432" y="423"/>
      <point x="369" y="363"/>
      <point x="369" y="264" type="curve" smooth="yes"/>
      <point x="369" y="164"/>
      <point x="432" y="104"/>
    </contour>
    <contour>
      <point x="160" y="104" type="curve" smooth="yes"/>
      <point x="238" y="104"/>
      <point x="301" y="164"/>
      <point x="301" y="264" type="curve" smooth="yes"/>
      <point x="301" y="363"/>
      <point x="238" y="423"/>
      <point x="160" y="423" type="curve" smooth="yes"/>
      <point x="82" y="423"/>
      <point x="20" y="363"/>
      <point x="20" y="264" type="curve" smooth="yes"/>
      <point x="20" y="164"/>
      <point x="83" y="104"/>
    </contour>
    <contour>
      <point x="160" y="179" type="curve" smooth="yes"/>
      <point x="100" y="179"/>
      <point x="63" y="216"/>
      <point x="63" y="264" type="curve" smooth="yes"/>
      <point x="63" y="311"/>
      <point x="100" y="348"/>
      <point x="160" y="348" type="curve" smooth="yes"/>
      <point x="220" y="348"/>
      <point x="257" y="311"/>
      <point x="257" y="264" type="curve" smooth="yes"/>
      <point x="257" y="216"/>
      <point x="220" y="179"/>
    </contour>
    <contour>
      <point x="510" y="179" type="curve" smooth="yes"/>
      <point x="449" y="179"/>
      <point x="412" y="216"/>
      <point x="412" y="264" type="curve" smooth="yes"/>
      <point x="412" y="311"/>
      <point x="449" y="348"/>
      <point x="510" y="348" type="curve" smooth="yes"/>
      <point x="570" y="348"/>
      <point x="607" y="311"/>
      <point x="607" y="264" type="curve" smooth="yes"/>
      <point x="607" y="216"/>
      <point x="570" y="179"/>
    </contour>
  </outline>
</glyph>
<glyph name="doubleSvarita_vedic" format="2">
  <unicode hex="1CDA"/>
  <note>
uni1CDA
</note>
  <anchor x="121" y="547" name="_top"/>
  <outline>
    <contour>
      <point x="154" y="669" type="line"/>
      <point x="218" y="669" type="line"/>
      <point x="218" y="870" type="line"/>
      <point x="154" y="870" type="line"/>
    </contour>
    <contour>
      <point x="24" y="669" type="line"/>
      <point x="88" y="669" type="line"/>
      <point x="88" y="870" type="line"/>
      <point x="24" y="870" type="line"/>
    </contour>
  </outline>
</glyph>
<glyph name="ellipsis" format="2">
  <advance width="839"/>
  <unicode hex="2026"/>
  <outline>
    <contour>
      <point x="699" y="-7" type="curve" smooth="yes"/>
      <point x="731" y="-7"/>
      <point x="758" y="9"/>
      <point x="758" y="59" type="curve" smooth="yes"/>
      <point x="758" y="108"/>
      <point x="731" y="124"/>
      <point x="699" y="124" type="curve" smooth="yes"/>
      <point x="666" y="124"/>
      <point x="639" y="108"/>
      <point x="639" y="59" type="curve" smooth="yes"/>
      <point x="639" y="9"/>
      <point x="666" y="-7"/>
    </contour>
    <contour>
      <point x="140" y="-7" type="curve" smooth="yes"/>
      <point x="172" y="-7"/>
      <point x="200" y="9"/>
      <point x="200" y="59" type="curve" smooth="yes"/>
      <point x="200" y="108"/>
      <point x="172" y="124"/>
      <point x="140" y="124" type="curve" smooth="yes"/>
      <point x="107" y="124"/>
      <point x="81" y="108"/>
      <point x="81" y="59" type="curve" smooth="yes"/>
      <point x="81" y="9"/>
      <point x="107" y="-7"/>
    </contour>
    <contour>
      <point x="420" y="-7" type="curve" smooth="yes"/>
      <point x="452" y="-7"/>
      <point x="479" y="9"/>
      <point x="479" y="59" type="curve" smooth="yes"/>
      <point x="479" y="108"/>
      <point x="452" y="124"/>
      <point x="420" y="124" type="curve" smooth="yes"/>
      <point x="387" y="124"/>
      <point x="360" y="108"/>
      <point x="360" y="59" type="curve" smooth="yes"/>
      <point x="360" y="9"/>
      <point x="387" y="-7"/>
    </contour>
  </outline>
</glyph>
<glyph name="fractionOneSixteenth_cinf" format="2">
  <advance width="624"/>
  <unicode hex="A833"/>
  <note>
uniA833
</note>
  <outline>
    <contour>
      <point x="584" y="557" type="line"/>
      <point x="525" y="616" type="line"/>
      <point x="38" y="497" type="line"/>
      <point x="97" y="434" type="line"/>
    </contour>
  </outline>
</glyph>
<glyph name="ki_kannada" format="2">
  <advance width="573"/>
  <anchor x="291" y="0" name="bottom"/>
  <anchor x="286" y="666" name="top"/>
  <outline>
    <contour>
      <point x="286" y="-10" type="curve" smooth="yes"/>
      <point x="396" y="-10"/>
      <point x="471" y="62"/>
      <point x="471" y="155" type="curve" smooth="yes"/>
      <point x="471" y="223"/>
      <point x="436" y="273"/>
      <point x="382" y="303" type="curve"/>
      <point x="382" y="297" type="line"/>
      <point x="416" y="294"/>
      <point x="442" y="294"/>
      <point x="495" y="294" type="curve" smooth="yes"/>
      <point x="515" y="294" type="line"/>
      <point x="515" y="361" type="line"/>
      <point x="63" y="361" type="line"/>
      <point x="58" y="294" type="line"/>
      <point x="85" y="294" type="line" smooth="yes"/>
      <point x="131" y="294"/>
      <point x="157" y="294"/>
      <point x="190" y="297" type="curve"/>
      <point x="191" y="303" type="line"/>
      <point x="138" y="273"/>
      <point x="103" y="223"/>
      <point x="103" y="155" type="curve" smooth="yes"/>
      <point x="103" y="62"/>
      <point x="176" y="-10"/>
    </contour>
    <contour>
      <point x="286" y="80" type="curve" smooth="yes"/>
      <point x="208" y="80"/>
      <point x="166" y="121"/>
      <point x="166" y="183" type="curve" smooth="yes"/>
      <point x="166" y="249"/>
      <point x="210" y="295"/>
      <point x="287" y="295" type="curve" smooth="yes"/>
      <point x="359" y="295"/>
      <point x="408" y="251"/>
      <point x="408" y="183" type="curve" smooth="yes"/>
      <point x="408" y="127"/>
      <point x="372" y="80"/>
    </contour>
    <contour>
      <point x="307" y="311" type="line"/>
      <point x="392" y="357"/>
      <point x="441" y="409"/>
      <point x="441" y="506" type="curve" smooth="yes"/>
      <point x="441" y="605"/>
      <point x="375" y="690"/>
      <point x="272" y="690" type="curve" smooth="yes"/>
      <point x="180" y="690"/>
      <point x="136" y="633"/>
      <point x="136" y="567" type="curve" smooth="yes"/>
      <point x="136" y="499"/>
      <point x="173" y="450"/>
      <point x="245" y="450" type="curve" smooth="yes"/>
      <point x="316" y="450"/>
      <point x="350" y="499"/>
      <point x="350" y="563" type="curve" smooth="yes"/>
      <point x="350" y="589"/>
      <point x="343" y="612"/>
      <point x="330" y="629" type="curve"/>
      <point x="299" y="628" type="line"/>
      <point x="363" y="611"/>
      <point x="396" y="562"/>
      <point x="396" y="500" type="curve" smooth="yes"/>
      <point x="396" y="430"/>
      <point x="334" y="373"/>
      <point x="244" y="338" type="curve"/>
    </contour>
    <contour>
      <point x="245" y="521" type="curve" smooth="yes"/>
      <point x="201" y="521"/>
      <point x="180" y="542"/>
      <point x="180" y="570" type="curve" smooth="yes"/>
      <point x="180" y="599"/>
      <point x="201" y="620"/>
      <point x="244" y="620" type="curve" smooth="yes"/>
      <point x="287" y="620"/>
      <point x="308" y="598"/>
      <point x="308" y="570" type="curve" smooth="yes"/>
      <point x="308" y="542"/>
      <point x="288" y="521"/>
    </contour>
  </outline>
</glyph>
<glyph name="ma_kannada.base" format="2">
  <advance width="1081"/>
  <anchor x="376" y="0" name="bottom"/>
  <anchor x="322" y="547" name="top"/>
  <anchor x="880" y="460" name="topright"/>
  <outline>
    <contour>
      <point x="855" y="-10" type="curve" smooth="yes"/>
      <point x="973" y="-10"/>
      <point x="1029" y="92"/>
      <point x="1029" y="220" type="curve" smooth="yes"/>
      <point x="1029" y="387"/>
      <point x="907" y="508"/>
      <point x="819" y="538" type="curve"/>
      <point x="795" y="460" type="line"/>
      <point x="908" y="423"/>
      <point x="982" y="340"/>
      <point x="982" y="223" type="curve" smooth="yes"/>
      <point x="982" y="151"/>
      <point x="946" y="85"/>
      <point x="852" y="85" type="curve" smooth="yes"/>
      <point x="756" y="85"/>
      <point x="705" y="139"/>
      <point x="662" y="198" type="curve"/>
      <point x="643" y="184" type="line"/>
      <point x="698" y="73"/>
      <point x="751" y="-10"/>
    </contour>
    <contour>
      <point x="793" y="460" type="line"/>
      <point x="924" y="460" type="line"/>
      <point x="924" y="547" type="line"/>
      <point x="800" y="547" type="line"/>
    </contour>
    <component base="va_kannada"/>
  </outline>
</glyph>
<glyph name="nukta_kannada.below.calt" format="2">
  <anchor x="0" y="0" name="_bottom"/>
  <outline>
    <contour>
      <point x="135" y="-150" type="curve" smooth="yes"/>
      <point x="157" y="-150"/>
      <point x="176" y="-135"/>
      <point x="176" y="-110" type="curve" smooth="yes"/>
      <point x="176" y="-84"/>
      <point x="157" y="-68"/>
      <point x="135" y="-68" type="curve" smooth="yes"/>
      <point x="112" y="-68"/>
      <point x="93" y="-84"/>
      <point x="93" y="-110" type="curve" smooth="yes"/>
      <point x="93" y="-135"/>
      <point x="112" y="-150"/>
    </contour>
    <contour>
      <point x="-134" y="-150" type="curve" smooth="yes"/>
      <point x="-113" y="-150"/>
      <point x="-93" y="-135"/>
      <point x="-93" y="-110" type="curve" smooth="yes"/>
      <point x="-93" y="-84"/>
      <point x="-112" y="-68"/>
      <point x="-134" y="-68" type="curve" smooth="yes"/>
      <point x="-158" y="-68"/>
      <point x="-176" y="-84"/>
      <point x="-176" y="-110" type="curve" smooth="yes"/>
      <point x="-176" y="-135"/>
      <point x="-157" y="-150"/>
    </contour>
  </outline>
</glyph>
<glyph name="nukta_kannada.below" format="2">
  <anchor x="0" y="0" name="_bottom"/>
  <outline>
    <contour>
      <point x="91" y="-150" type="curve" smooth="yes"/>
      <point x="113" y="-150"/>
      <point x="132" y="-135"/>
      <point x="132" y="-110" type="curve" smooth="yes"/>
      <point x="132" y="-84"/>
      <point x="113" y="-68"/>
      <point x="91" y="-68" type="curve" smooth="yes"/>
      <point x="68" y="-68"/>
      <point x="49" y="-84"/>
      <point x="49" y="-110" type="curve" smooth="yes"/>
      <point x="49" y="-135"/>
      <point x="68" y="-150"/>
    </contour>
    <contour>
      <point x="-90" y="-150" type="curve" smooth="yes"/>
      <point x="-69" y="-150"/>
      <point x="-49" y="-135"/>
      <point x="-49" y="-110" type="curve" smooth="yes"/>
      <point x="-49" y="-84"/>
      <point x="-68" y="-68"/>
      <point x="-90" y="-68" type="curve" smooth="yes"/>
      <point x="-114" y="-68"/>
      <point x="-132" y="-84"/>
      <point x="-132" y="-110" type="curve" smooth="yes"/>
      <point x="-132" y="-135"/>
      <point x="-113" y="-150"/>
    </contour>
  </outline>
</glyph>
<glyph name="tte_kannada" format="2">
  <advance width="799"/>
  <anchor x="411" y="0" name="bottom"/>
  <anchor x="415" y="837" name="top"/>
  <anchor x="544" y="460" name="topright"/>
  <outline>
    <contour>
      <point x="245" y="-11" type="curve" smooth="yes"/>
      <point x="348" y="-11"/>
      <point x="388" y="54"/>
      <point x="414" y="143" type="curve"/>
      <point x="404" y="144" type="line"/>
      <point x="428" y="53"/>
      <point x="485" y="-11"/>
      <point x="583" y="-11" type="curve" smooth="yes"/>
      <point x="685" y="-11"/>
      <point x="734" y="64"/>
      <point x="734" y="142" type="curve" smooth="yes"/>
      <point x="734" y="244"/>
      <point x="652" y="308"/>
      <point x="545" y="312" type="curve"/>
      <point x="545" y="307" type="line"/>
      <point x="624" y="322"/>
      <point x="678" y="360"/>
      <point x="678" y="416" type="curve" smooth="yes"/>
      <point x="678" y="450"/>
      <point x="665" y="478"/>
      <point x="633" y="498" type="curve"/>
      <point x="637" y="459" type="line"/>
      <point x="637" y="547" type="line"/>
      <point x="463" y="547" type="line"/>
      <point x="456" y="460" type="line"/>
      <point x="521" y="460" type="line" smooth="yes"/>
      <point x="572" y="460"/>
      <point x="596" y="437"/>
      <point x="596" y="406" type="curve" smooth="yes"/>
      <point x="596" y="369"/>
      <point x="562" y="344"/>
      <point x="501" y="338" type="curve"/>
      <point x="496" y="278" type="line"/>
      <point x="612" y="278"/>
      <point x="661" y="230"/>
      <point x="661" y="167" type="curve" smooth="yes"/>
      <point x="661" y="116"/>
      <point x="626" y="84"/>
      <point x="570" y="84" type="curve" smooth="yes"/>
      <point x="488" y="84"/>
      <point x="449" y="132"/>
      <point x="428" y="202" type="curve"/>
      <point x="394" y="202" type="line"/>
      <point x="373" y="122"/>
      <point x="329" y="84"/>
      <point x="249" y="84" type="curve" smooth="yes"/>
      <point x="159" y="84"/>
      <point x="105" y="140"/>
      <point x="105" y="249" type="curve" smooth="yes"/>
      <point x="105" y="326"/>
      <point x="130" y="384"/>
      <point x="172" y="420" type="curve"/>
      <point x="162" y="427" type="line"/>
      <point x="154" y="416"/>
      <point x="148" y="397"/>
      <point x="148" y="374" type="curve" smooth="yes"/>
      <point x="148" y="296"/>
      <point x="188" y="248"/>
      <point x="262" y="248" type="curve" smooth="yes"/>
      <point x="337" y="248"/>
      <point x="375" y="299"/>
      <point x="375" y="374" type="curve" smooth="yes"/>
      <point x="375" y="428"/>
      <point x="363" y="470"/>
      <point x="310" y="509" type="curve" smooth="yes"/>
      <point x="258" y="548"/>
      <point x="220" y="582"/>
      <point x="220" y="635" type="curve" smooth="yes"/>
      <point x="220" y="682"/>
      <point x="255" y="720"/>
      <point x="312" y="729" type="curve"/>
      <point x="304" y="768" type="line"/>
      <point x="194" y="767"/>
      <point x="137" y="712"/>
      <point x="137" y="642" type="curve" smooth="yes"/>
      <point x="137" y="563"/>
      <point x="214" y="516"/>
      <point x="296" y="497" type="curve"/>
      <point x="257" y="516" type="line"/>
      <point x="141" y="516"/>
      <point x="54" y="395"/>
      <point x="54" y="219" type="curve" smooth="yes"/>
      <point x="54" y="74"/>
      <point x="133" y="-11"/>
    </contour>
    <contour>
      <point x="260" y="322" type="curve" smooth="yes"/>
      <point x="214" y="322"/>
      <point x="189" y="345"/>
      <point x="189" y="381" type="curve" smooth="yes"/>
      <point x="189" y="415"/>
      <point x="214" y="440"/>
      <point x="261" y="440" type="curve" smooth="yes"/>
      <point x="309" y="440"/>
      <point x="331" y="412"/>
      <point x="331" y="381" type="curve" smooth="yes"/>
      <point x="331" y="348"/>
      <point x="311" y="322"/>
    </contour>
    <contour>
      <point x="488" y="460" type="line"/>
      <point x="523" y="460" type="line" smooth="yes"/>
      <point x="674" y="460"/>
      <point x="736" y="521"/>
      <point x="736" y="634" type="curve" smooth="yes"/>
      <point x="736" y="720"/>
      <point x="681" y="803"/>
      <point x="589" y="803" type="curve" smooth="yes"/>
      <point x="502" y="803"/>
      <point x="466" y="744"/>
      <point x="466" y="693" type="curve" smooth="yes"/>
      <point x="466" y="634"/>
      <point x="506" y="602"/>
      <point x="550" y="602" type="curve" smooth="yes"/>
      <point x="584" y="602"/>
      <point x="604" y="621"/>
      <point x="604" y="648" type="curve" smooth="yes"/>
      <point x="604" y="671"/>
      <point x="590" y="691"/>
      <point x="562" y="691" type="curve" smooth="yes"/>
      <point x="536" y="691"/>
      <point x="521" y="673"/>
      <point x="521" y="651" type="curve" smooth="yes"/>
      <point x="521" y="639" type="line"/>
      <point x="532" y="639" type="line"/>
      <point x="517" y="649"/>
      <point x="510" y="662"/>
      <point x="510" y="685" type="curve" smooth="yes"/>
      <point x="510" y="721"/>
      <point x="536" y="749"/>
      <point x="587" y="749" type="curve" smooth="yes"/>
      <point x="655" y="749"/>
      <point x="690" y="701"/>
      <point x="690" y="648" type="curve" smooth="yes"/>
      <point x="690" y="617"/>
      <point x="681" y="593"/>
      <point x="664" y="577" type="curve" smooth="yes"/>
      <point x="642" y="556"/>
      <point x="608" y="547"/>
      <point x="527" y="547" type="curve" smooth="yes"/>
      <point x="495" y="547" type="line"/>
    </contour>
  </outline>
</glyph>
